<?xml version="1.0" standalone="no"?>
<!DOCTYPE svg PUBLIC "-//W3C//DTD SVG 20010904//EN"
 "http://www.w3.org/TR/2001/REC-SVG-20010904/DTD/svg10.dtd">
<svg version="1.0" xmlns="http://www.w3.org/2000/svg"
 width="1024.000000pt" height="1024.000000pt" viewBox="0 0 1024.000000 1024.000000"
 preserveAspectRatio="xMidYMid meet">
<metadata>
Created by potrace 1.14, written by Peter Selinger 2001-2017
</metadata>
<g transform="translate(0.000000,1024.000000) scale(0.100000,-0.100000)"
fill="#000000" stroke="none">
<path d="M0 5120 l0 -5120 5120 0 5120 0 0 5120 0 5120 -5120 0 -5120 0 0
-5120z m4613 2265 c208 -27 397 -98 540 -202 l67 -50 103 53 c172 87 357 148
567 186 101 18 540 18 675 0 275 -37 531 -138 690 -271 96 -81 92 -80 171 -23
199 144 460 248 734 294 111 19 461 15 585 -6 453 -76 760 -285 942 -642 104
-205 137 -357 137 -629 0 -347 -44 -627 -155 -1000 -174 -581 -403 -1074 -656
-1412 -235 -315 -509 -520 -838 -627 -274 -90 -624 -106 -940 -45 -276 53
-522 179 -677 347 -31 34 -59 62 -63 62 -3 0 -30 -20 -60 -45 -194 -157 -440
-281 -687 -344 -191 -50 -248 -56 -478 -55 -184 0 -230 3 -320 23 -200 42
-358 107 -504 205 -38 25 -72 46 -77 46 -5 0 -30 -13 -57 -30 -159 -98 -405
-190 -602 -225 -124 -22 -409 -31 -531 -16 -200 23 -407 92 -573 190 -49 28
-90 51 -94 51 -3 0 -54 -25 -113 -55 -485 -248 -1117 -248 -1517 1 -97 61
-236 194 -297 284 -218 326 -226 721 -28 1415 193 679 674 1741 942 2077 163
206 407 355 681 414 128 28 426 25 570 -5 187 -40 317 -117 391 -232 l31 -49
47 35 c183 138 431 231 713 269 210 29 510 33 681 11z"/>
<path d="M4210 7143 c-386 -20 -655 -103 -872 -266 -83 -62 -176 -159 -230
-237 -18 -27 -36 -50 -40 -50 -5 0 -8 22 -8 48 0 228 -136 398 -365 457 -83
21 -276 37 -355 29 -260 -25 -468 -131 -629 -319 -60 -70 -186 -285 -306 -520
-356 -701 -647 -1507 -716 -1985 -27 -183 -23 -374 11 -490 113 -393 459 -600
965 -576 347 16 599 102 803 273 l52 45 55 -50 c218 -199 506 -294 844 -279
380 18 697 131 898 320 l53 50 77 -74 c149 -142 315 -228 533 -275 121 -27
434 -27 575 0 358 66 689 254 929 527 l59 67 46 -92 c78 -156 163 -251 308
-346 345 -228 959 -238 1385 -24 134 67 229 135 352 254 282 273 496 664 713
1305 103 306 185 647 213 896 18 150 8 427 -19 542 -96 414 -390 676 -832 741
-141 21 -435 21 -555 1 -299 -52 -586 -204 -791 -418 l-63 -65 -30 56 c-68
127 -197 241 -365 323 -183 89 -395 129 -682 129 -407 0 -717 -98 -1017 -323
-7 -6 -42 22 -97 76 -73 72 -103 93 -191 136 -197 97 -406 131 -708 114z m378
-319 c113 -23 222 -76 281 -139 71 -75 83 -110 79 -226 -3 -87 -7 -103 -41
-172 -62 -125 -170 -203 -344 -248 -86 -22 -293 -39 -479 -39 l-121 0 -66
-127 c-66 -129 -120 -253 -113 -260 2 -2 64 1 139 8 414 34 590 -93 506 -367
-61 -201 -177 -316 -365 -364 -114 -29 -362 -27 -515 6 -27 5 -27 4 -78 -153
-52 -164 -91 -299 -91 -319 0 -8 15 -7 53 3 234 61 517 66 663 12 104 -39 176
-128 190 -235 8 -62 -9 -173 -37 -246 -102 -268 -482 -442 -926 -425 -144 5
-213 19 -323 64 -198 81 -345 243 -394 435 -86 339 96 1106 443 1868 289 634
534 863 989 925 141 19 454 19 550 -1z m1837 -4 c306 -35 506 -145 592 -326
41 -85 52 -173 41 -298 -28 -297 -175 -491 -417 -552 -93 -23 -248 -16 -319
15 -63 28 -107 76 -123 133 -12 47 -7 94 21 187 20 64 25 116 14 146 -11 28
-60 45 -128 45 -121 0 -216 -55 -301 -175 -99 -139 -275 -545 -406 -935 -94
-280 -129 -423 -135 -545 -5 -91 -4 -104 18 -144 32 -62 66 -84 137 -89 188
-14 368 148 457 412 13 38 24 75 24 82 0 6 -20 15 -44 18 -76 12 -163 61 -191
110 -77 131 37 408 204 499 110 60 353 93 511 68 152 -24 266 -107 307 -223
27 -80 25 -280 -6 -418 -153 -695 -610 -1188 -1190 -1285 -155 -26 -393 -17
-516 19 -137 41 -218 88 -311 181 -68 67 -89 96 -127 175 -66 138 -82 221 -81
415 1 118 7 193 23 284 68 380 229 860 426 1266 323 665 703 939 1310 944 66
0 161 -4 210 -9z m2175 0 c349 -34 557 -190 641 -482 27 -94 37 -333 20 -475
-32 -261 -123 -631 -226 -914 -109 -302 -273 -650 -393 -834 -274 -422 -615
-603 -1097 -582 -194 8 -339 45 -454 115 -226 137 -320 368 -291 722 29 364
145 788 367 1350 187 473 364 746 588 905 216 155 527 226 845 195z m-6036
-24 c182 -55 211 -228 97 -575 -94 -286 -233 -599 -620 -1404 -101 -208 -180
-381 -178 -384 3 -2 57 1 120 8 259 27 444 -41 485 -180 36 -117 -23 -332
-124 -453 -153 -184 -445 -281 -799 -265 -71 3 -157 13 -190 22 -248 68 -375
235 -375 493 0 291 174 887 446 1530 197 464 414 878 537 1025 43 52 144 128
201 152 108 45 303 60 400 31z"/>
<path d="M8286 6148 c-51 -14 -113 -76 -166 -168 -164 -282 -502 -1232 -535
-1502 -12 -93 22 -164 92 -194 101 -43 219 21 303 166 84 145 229 508 366 915
181 540 206 736 100 780 -40 17 -102 18 -160 3z"/>
</g>
</svg>
